<?xml version="1.0" encoding="utf-8"?>
<!-- Svg Vector Icons : http://www.onlinewebfonts.com/icon -->
<!DOCTYPE svg PUBLIC "-//W3C//DTD SVG 1.1//EN" "http://www.w3.org/Graphics/SVG/1.1/DTD/svg11.dtd">
<svg version="1.1" xmlns="http://www.w3.org/2000/svg" xmlns:xlink="http://www.w3.org/1999/xlink" x="0px" y="0px" viewBox="0 0 256 256" enable-background="new 0 0 256 256" xml:space="preserve">
<metadata> Svg Vector Icons : http://www.onlinewebfonts.com/icon </metadata>
<g><g><g><path fill="#000000" d="M108.6,10.6c-5.9,1.4-10.5,5.3-13.2,11c-1.4,3-1.6,3.8-1.6,7.7c0,5.3,0.9,8.3,3.6,11.8c10.5,13.9,31.9,8.9,35.1-8.4c1.8-9.7-4.7-19.6-14.6-22.1C114.5,9.8,112,9.8,108.6,10.6z"/><path fill="#000000" d="M88.2,52.2c-5.5,0.7-8.5,3-10.9,8.1c-3,6.4-3.8,16-3.9,42.3c0,16.8,0.3,22.1,1.8,27.6c1.7,6.7,5.1,11.6,9.5,13.4l2.5,1.1v45.6v45.6l1.2,2.5c2.2,4.7,6.3,7.2,11.9,7.3c3,0,3.8-0.2,6.1-1.5c2.9-1.7,5.8-4.9,6.2-7.1c0.3-1.8,0.9-1.8,1.3,0c0.4,2.2,3.3,5.5,6.2,7.1c2.3,1.3,3.1,1.5,6.1,1.5c5.7-0.1,9.8-2.7,12.1-7.8c0.9-1.9,0.9-4.9,0.9-66.3c0-35.4,0.1-64.3,0.4-64.3c0.2,0,4.3,7.7,9.1,17c4.8,9.3,9.3,17.6,10,18.4c3,3.5,7,4.6,10.5,2.9c3.4-1.7,4.2-3.2,4.2-7.4c0-3.5-0.3-4.3-14.9-41.4c-9.9-25.1-15.3-38.5-16.3-39.6c-0.8-1-2.4-2.5-3.5-3.2l-2.1-1.5l-9.4-0.3C115,51.7,91.6,51.8,88.2,52.2z"/><path fill="#000000" d="M166.8,158.3c-0.4,0.5-0.7,2.6-0.8,5.4l-0.2,4.6h-4.1c-4.7,0-6.3,0.5-7.1,2.4c-0.3,0.9-0.5,12.1-0.4,37.1l0.1,35.9l1.4,1.2c1.4,1.2,1.4,1.2,12.9,1.2h11.6l1.2-1.2l1.2-1.2v-36.4v-36.4l-1.2-1.2c-1.1-1.1-1.6-1.2-5.9-1.2h-4.7v-4.5c0-2.5-0.2-4.9-0.5-5.4C169.7,157.3,167.7,157.2,166.8,158.3z"/></g></g></g>
</svg>
